<svg width="179" height="179" viewBox="0 0 179 179" fill="none" xmlns="http://www.w3.org/2000/svg">
<path d="M89.3568 140.855C90.7351 140.855 91.8628 139.728 91.8628 138.349V109.852C91.8628 108.474 90.7351 107.346 89.3568 107.346C87.9785 107.346 86.8508 108.474 86.8508 109.852V138.331C86.8508 139.728 87.9606 140.855 89.3568 140.855Z" fill="white"/>
<path d="M145.294 85.5262H126.231L137.562 59.9829C138.242 58.4435 137.544 56.6535 136.022 55.9733C134.483 55.2931 132.693 55.9912 132.013 57.5127L119.572 85.5262H59.1237L46.7011 57.5127C46.0209 55.9733 44.2309 55.2752 42.6915 55.9733C41.1521 56.6535 40.454 58.4435 41.1521 59.9829L52.4828 85.5262H33.5088C28.7295 85.5262 24.702 89.7148 24.702 94.6552C24.702 97.0717 25.7044 99.4703 27.4586 101.207C29.1233 102.871 31.2713 103.784 33.473 103.784H33.4909H33.5088H36.3549L41.8144 142.574C42.4409 147.066 46.3431 150.45 50.8718 150.45H127.913C132.442 150.45 136.344 147.066 136.971 142.574L142.341 103.784H145.294C150.145 103.784 154.101 99.6851 154.101 94.6552C154.101 89.6253 150.145 85.5262 145.294 85.5262ZM33.4909 97.7161C32.8823 97.7161 32.2558 97.4297 31.7546 96.9106C31.1281 96.302 30.788 95.4786 30.788 94.6552C30.788 93.08 32.1126 91.6122 33.5088 91.6122H55.1857L55.6332 92.6325C56.1344 93.7602 57.2442 94.4404 58.4077 94.4404C58.8194 94.4404 59.2311 94.3509 59.6428 94.1719C60.7168 93.7065 61.3612 92.6862 61.4507 91.6122H117.281C117.352 92.7041 118.015 93.7065 119.089 94.1719C119.483 94.3509 119.912 94.4404 120.324 94.4404C121.487 94.4404 122.597 93.7602 123.098 92.6325L123.546 91.6122H145.312C146.78 91.6122 148.033 93.0084 148.033 94.6552C148.033 96.302 146.798 97.6982 145.312 97.6982H33.4909V97.7161ZM130.956 141.75C130.742 143.254 129.435 144.381 127.931 144.381H50.8718C49.3503 144.381 48.0436 143.254 47.8467 141.75L42.4946 103.802H136.201L130.956 141.75Z" fill="white"/>
<path d="M64.9412 140.855C66.3195 140.855 67.4472 139.728 67.4472 138.349V109.852C67.4472 108.474 66.3195 107.346 64.9412 107.346C63.5629 107.346 62.4352 108.474 62.4352 109.852V138.331C62.4352 139.728 63.545 140.855 64.9412 140.855Z" fill="white"/>
<path d="M113.772 140.855C115.151 140.855 116.278 139.728 116.278 138.349V109.852C116.278 108.474 115.151 107.346 113.772 107.346C112.394 107.346 111.266 108.474 111.266 109.852V138.331C111.266 139.728 112.394 140.855 113.772 140.855Z" fill="white"/>
<path d="M85.0429 78.223C85.5799 79.1001 86.5107 79.655 87.531 79.6908C87.5668 79.6908 87.6026 79.6908 87.6384 79.6908C88.6229 79.6908 89.5537 79.2075 90.1265 78.402L101.672 62.113C102.334 61.1822 102.424 59.965 101.887 58.9626C101.368 57.9602 100.33 57.3158 99.1839 57.3158H91.5585C92.006 47.1307 98.6648 38.0912 108.474 34.7439C110.067 34.2069 110.908 32.4706 110.371 30.8775C109.834 29.2844 108.098 28.4431 106.505 28.9801C94.2077 33.1687 85.92 44.5531 85.4546 57.3158H77.7755C76.6836 57.3158 75.6633 57.9065 75.1263 58.8552C74.5893 59.8039 74.6072 60.9853 75.18 61.9161L85.0429 78.223ZM93.3127 63.4018L87.8532 71.0988L83.1992 63.4018H93.3127Z" fill="white"/>
</svg>
