<svg width="20" height="20" viewBox="0 0 20 20" fill="none" xmlns="http://www.w3.org/2000/svg">
<g clip-path="url(#clip0_2000_13)">
<path d="M19.0703 16.0012L18.4484 16.0634L18.6806 18.3855L16.875 17.0312V6.875H17.5297L18.3773 15.3537L18.9993 15.2915L18.1234 6.53125C18.1157 6.45417 18.0796 6.38271 18.0221 6.33074C17.9647 6.27877 17.89 6.25 17.8125 6.25H14.375V3.75C14.3753 3.23104 14.2462 2.72019 13.9995 2.26362C13.7528 1.80705 13.3962 1.41914 12.962 1.13496C12.5278 0.850768 12.0296 0.679254 11.5124 0.635913C10.9953 0.592571 10.4755 0.678769 10 0.886716C9.52453 0.678769 9.00473 0.592571 8.48759 0.635913C7.97044 0.679254 7.47224 0.850768 7.03801 1.13496C6.60378 1.41914 6.2472 1.80705 6.0005 2.26362C5.7538 2.72019 5.62474 3.23104 5.625 3.75V6.25H2.1875C2.11003 6.25 2.03532 6.27877 1.97787 6.33074C1.92042 6.38271 1.88431 6.45417 1.87657 6.53125L1.66817 8.61511L2.29008 8.6773L2.47032 6.875H4.0625V9.80687L2.98524 10.3455C2.93333 10.3715 2.88968 10.4114 2.85917 10.4607C2.82867 10.5101 2.81251 10.567 2.8125 10.625V11.875H3.4375V10.8181L4.0625 10.5056V11.25H4.6875V10.5056L5.3125 10.8181V14.0625H3.4375V12.5H2.8125V14.375C2.8125 14.4579 2.84543 14.5374 2.90403 14.596C2.96264 14.6546 3.04212 14.6875 3.125 14.6875H5.625C5.70788 14.6875 5.78737 14.6546 5.84598 14.596C5.90458 14.5374 5.9375 14.4579 5.9375 14.375V10.625C5.9375 10.567 5.92134 10.5101 5.89083 10.4607C5.86032 10.4114 5.81667 10.3715 5.76477 10.3455L4.6875 9.80687V6.875H5.625V7.58457C5.50585 7.65336 5.41273 7.75955 5.36008 7.88666C5.30743 8.01377 5.29819 8.1547 5.3338 8.2876C5.36941 8.42049 5.44788 8.53792 5.55703 8.62168C5.66618 8.70544 5.79992 8.75083 5.9375 8.75083C6.07509 8.75083 6.20883 8.70544 6.31798 8.62168C6.42713 8.53792 6.5056 8.42049 6.54121 8.2876C6.57682 8.1547 6.56758 8.01377 6.51493 7.88666C6.46228 7.75955 6.36916 7.65336 6.25 7.58457V6.875H11.25V7.58457C11.1309 7.65336 11.0377 7.75955 10.9851 7.88666C10.9324 8.01377 10.9232 8.1547 10.9588 8.2876C10.9944 8.42049 11.0729 8.53792 11.182 8.62168C11.2912 8.70544 11.4249 8.75083 11.5625 8.75083C11.7001 8.75083 11.8338 8.70544 11.943 8.62168C12.0521 8.53792 12.1306 8.42049 12.1662 8.2876C12.2018 8.1547 12.1926 8.01377 12.1399 7.88666C12.0873 7.75955 11.9942 7.65336 11.875 7.58457V6.875H14.9672L13.7797 18.75H1.28282L2.2125 9.4548L1.59059 9.39262L0.626566 19.0312C0.622199 19.0747 0.626989 19.1186 0.640627 19.1601C0.654264 19.2016 0.676448 19.2397 0.705745 19.2721C0.735043 19.3045 0.770804 19.3304 0.810722 19.3481C0.850641 19.3658 0.89383 19.375 0.937504 19.375H19.0625C19.1062 19.375 19.1494 19.3658 19.1893 19.3481C19.2292 19.3304 19.265 19.3045 19.2943 19.2721C19.3236 19.2397 19.3457 19.2016 19.3594 19.1601C19.373 19.1186 19.3778 19.0747 19.3734 19.0312L19.0703 16.0012ZM8.125 6.25H6.25V3.75C6.24973 3.37498 6.33389 3.00471 6.49624 2.66666C6.65859 2.32861 6.89497 2.03145 7.18784 1.79722C7.48071 1.56298 7.82256 1.3977 8.18802 1.31361C8.55349 1.22952 8.9332 1.22879 9.29899 1.31148C8.93277 1.60371 8.63706 1.97467 8.43382 2.39682C8.23059 2.81897 8.12503 3.28147 8.125 3.75V6.25ZM11.25 6.25H8.75V3.75C8.75034 3.31141 8.86601 2.88062 9.08541 2.50086C9.30481 2.12109 9.62022 1.8057 10 1.58633C10.3798 1.8057 10.6952 2.12109 10.9146 2.50086C11.134 2.88062 11.2497 3.31141 11.25 3.75V6.25ZM13.75 6.25H11.875V3.75C11.875 3.28147 11.7694 2.81897 11.5662 2.39682C11.3629 1.97467 11.0672 1.60371 10.701 1.31148C11.0668 1.22879 11.4465 1.22952 11.812 1.31361C12.1775 1.3977 12.5193 1.56298 12.8122 1.79722C13.105 2.03145 13.3414 2.32861 13.5038 2.66666C13.6661 3.00471 13.7503 3.37498 13.75 3.75V6.25ZM15.5953 6.875H16.25V17.0312L14.4443 18.3855L15.5953 6.875ZM15 18.75L16.5625 17.5781L18.125 18.75H15Z" fill="black"/>
</g>
<defs>
<clipPath id="clip0_2000_13">
<rect width="20" height="20" fill="white"/>
</clipPath>
</defs>
</svg>
