<svg width="150" height="150" viewBox="0 0 150 150" fill="none" xmlns="http://www.w3.org/2000/svg">
<path d="M29.535 55.95C29.4117 55.4667 29.4844 54.9543 29.7373 54.5244C29.9901 54.0945 30.4027 53.782 30.885 53.655C42.138 50.7297 53.952 50.7297 65.205 53.655C65.6873 53.782 66.0999 54.0945 66.3527 54.5244C66.6056 54.9543 66.6783 55.4667 66.555 55.95C66.4518 56.3531 66.2175 56.7104 65.8889 56.9657C65.5603 57.2209 65.1561 57.3596 64.74 57.36C64.5853 57.3746 64.4297 57.3746 64.275 57.36C53.6329 54.5848 42.4571 54.5848 31.815 57.36C31.5727 57.4179 31.3213 57.4273 31.0753 57.3876C30.8294 57.348 30.5936 57.2602 30.3818 57.1291C30.1699 56.9981 29.986 56.8265 29.8406 56.6241C29.6953 56.4217 29.5915 56.1926 29.535 55.95ZM31.815 74.1C42.4571 71.3248 53.6329 71.3248 64.275 74.1C64.4297 74.1145 64.5853 74.1145 64.74 74.1C65.1561 74.0996 65.5603 73.9609 65.8889 73.7057C66.2175 73.4504 66.4518 73.0931 66.555 72.69C66.6783 72.2067 66.6056 71.6943 66.3527 71.2644C66.0999 70.8345 65.6873 70.522 65.205 70.395C53.951 67.4776 42.139 67.4776 30.885 70.395C30.4027 70.522 29.9901 70.8345 29.7373 71.2644C29.4844 71.6943 29.4117 72.2067 29.535 72.69C29.5896 72.9336 29.6924 73.1639 29.8372 73.3673C29.982 73.5708 30.166 73.7432 30.3784 73.8745C30.5908 74.0059 30.8273 74.0935 31.074 74.1322C31.3207 74.1709 31.5726 74.1599 31.815 74.1ZM31.815 90.8999C42.4571 88.1248 53.6329 88.1248 64.275 90.8999C64.4297 90.9145 64.5853 90.9145 64.74 90.8999C65.1957 90.8986 65.6354 90.7313 65.9767 90.4294C66.3181 90.1275 66.5378 89.7115 66.5948 89.2594C66.6518 88.8072 66.5421 88.3498 66.2863 87.9726C66.0305 87.5954 65.6462 87.3243 65.205 87.21C53.952 84.2847 42.138 84.2847 30.885 87.21C30.6384 87.2631 30.405 87.3656 30.1989 87.5111C29.9928 87.6566 29.8182 87.8422 29.6855 88.0567C29.5529 88.2713 29.4649 88.5105 29.4268 88.7598C29.3887 89.0092 29.4014 89.2638 29.464 89.5081C29.5266 89.7525 29.6379 89.9818 29.7912 90.1822C29.9445 90.3825 30.1366 90.5499 30.3561 90.6742C30.5757 90.7986 30.818 90.8773 31.0687 90.9058C31.3193 90.9343 31.5732 90.9119 31.815 90.84V90.8999ZM31.815 107.7C42.4571 104.925 53.6329 104.925 64.275 107.7C64.4297 107.715 64.5853 107.715 64.74 107.7C65.1957 107.699 65.6354 107.531 65.9767 107.229C66.3181 106.927 66.5378 106.512 66.5948 106.059C66.6518 105.607 66.5421 105.15 66.2863 104.773C66.0305 104.395 65.6462 104.124 65.205 104.01C53.952 101.085 42.138 101.085 30.885 104.01C30.6384 104.063 30.405 104.166 30.1989 104.311C29.9928 104.457 29.8182 104.642 29.6855 104.857C29.5529 105.071 29.4649 105.31 29.4268 105.56C29.3887 105.809 29.4014 106.064 29.464 106.308C29.5266 106.553 29.6379 106.782 29.7912 106.982C29.9445 107.183 30.1366 107.35 30.3561 107.474C30.5757 107.599 30.818 107.677 31.0687 107.706C31.3193 107.734 31.5732 107.712 31.815 107.64V107.7ZM85.095 48.195C85.2593 48.217 85.4257 48.217 85.59 48.195C86.0015 48.1939 86.4015 48.0585 86.729 47.8095C87.0566 47.5604 87.294 47.2112 87.405 46.815C89.115 40.545 99.405 33.765 106.695 34.065C107.192 34.0848 107.677 33.9064 108.043 33.5688C108.408 33.2312 108.625 32.7622 108.645 32.265C108.665 31.7677 108.486 31.2829 108.149 30.9172C107.811 30.5515 107.342 30.3348 106.845 30.315C97.845 29.955 85.95 37.905 83.775 45.825C83.6999 46.0672 83.6748 46.3221 83.701 46.5743C83.7273 46.8266 83.8045 47.0709 83.9279 47.2924C84.0513 47.514 84.2183 47.7082 84.4189 47.8633C84.6195 48.0184 84.8495 48.1313 85.095 48.195ZM85.095 64.575C85.2593 64.597 85.4257 64.597 85.59 64.575C86.0015 64.5739 86.4015 64.4385 86.729 64.1895C87.0566 63.9404 87.294 63.5912 87.405 63.195C89.115 56.925 99.405 50.13 106.695 50.445C107.192 50.4649 107.677 50.2864 108.043 49.9488C108.408 49.6113 108.625 49.1422 108.645 48.645C108.665 48.1477 108.486 47.6629 108.149 47.2972C107.811 46.9315 107.342 46.7148 106.845 46.695C97.845 46.35 85.95 54.285 83.775 62.205C83.6999 62.4472 83.6748 62.7021 83.701 62.9543C83.7273 63.2066 83.8045 63.4509 83.9279 63.6724C84.0513 63.894 84.2183 64.0882 84.4189 64.2433C84.6195 64.3984 84.8495 64.5113 85.095 64.575ZM85.095 80.955C85.2593 80.977 85.4257 80.977 85.59 80.955C86.0015 80.9539 86.4015 80.8185 86.729 80.5695C87.0566 80.3204 87.294 79.9712 87.405 79.575C89.115 73.305 99.405 66.51 106.695 66.825C107.192 66.8448 107.677 66.6664 108.043 66.3288C108.408 65.9912 108.625 65.5222 108.645 65.025C108.665 64.5277 108.486 64.0429 108.149 63.6772C107.811 63.3115 107.342 63.0948 106.845 63.075C97.845 62.715 85.95 70.665 83.775 78.585C83.6928 78.83 83.6621 79.0893 83.6848 79.3468C83.7076 79.6042 83.7833 79.8541 83.9072 80.0809C84.0312 80.3077 84.2007 80.5064 84.4051 80.6645C84.6095 80.8227 84.8444 80.9369 85.095 81V80.955ZM85.095 97.335C85.2593 97.357 85.4257 97.357 85.59 97.335C85.9958 97.3367 86.3913 97.2079 86.7182 96.9675C87.045 96.7271 87.2859 96.3878 87.405 96C89.115 89.73 99.405 82.95 106.695 83.25C107.192 83.2698 107.677 83.0914 108.043 82.7538C108.408 82.4162 108.625 81.9472 108.645 81.45C108.665 80.9527 108.486 80.4679 108.149 80.1022C107.811 79.7365 107.342 79.5198 106.845 79.5C97.845 79.125 85.95 87.09 83.775 95.01C83.7069 95.2493 83.6871 95.4998 83.7167 95.7469C83.7464 95.9939 83.825 96.2327 83.9478 96.4491C84.0707 96.6655 84.2354 96.8552 84.4323 97.0073C84.6293 97.1594 84.8546 97.2708 85.095 97.335ZM7.5 130.095V48.63C7.5 48.1327 7.69754 47.6558 8.04917 47.3041C8.40081 46.9525 8.87772 46.755 9.375 46.755H19.215V40.5C19.2127 40.0832 19.3504 39.6777 19.6061 39.3486C19.8618 39.0195 20.2206 38.7858 20.625 38.685C38.0286 34.1599 56.282 34.0156 73.755 38.265C79.05 23.895 101.055 9.59996 117.45 10.305C117.932 10.3281 118.386 10.5358 118.718 10.885C119.05 11.2341 119.236 11.6979 119.235 12.18V36.525C122.61 37.08 126.015 37.755 129.375 38.625C129.79 38.728 130.156 38.9707 130.413 39.3121C130.67 39.6536 130.801 40.073 130.785 40.5V46.815H140.625C141.112 46.8147 141.58 47.004 141.93 47.3428C142.28 47.6815 142.484 48.1431 142.5 48.63V130.095C142.496 132.648 141.48 135.095 139.675 136.9C137.87 138.705 135.423 139.721 132.87 139.725H17.13C14.5772 139.721 12.1301 138.705 10.3249 136.9C8.51983 135.095 7.50397 132.648 7.5 130.095ZM130.785 50.505V124.89C130.787 125.161 130.728 125.43 130.614 125.676C130.5 125.922 130.333 126.141 130.125 126.315C129.919 126.487 129.678 126.613 129.42 126.685C129.161 126.758 128.891 126.775 128.625 126.735C111.52 123.76 94.0369 123.679 76.905 126.495V135.975H132.87C134.428 135.971 135.922 135.35 137.023 134.248C138.125 133.147 138.746 131.653 138.75 130.095V50.505H130.785ZM119.235 40.32V96.63C119.237 97.0635 119.088 97.4843 118.815 97.8206C118.541 98.157 118.16 98.3883 117.735 98.475C101.235 101.37 89.415 108.615 79.155 122.355C95.0542 120.038 111.213 120.144 127.08 122.67V41.895C124.5 41.265 121.83 40.755 119.235 40.32ZM76.875 40.695V119.07C87.24 105.57 99.105 98.25 115.485 95.07V14.07C100.5 14.49 80.535 28.05 76.875 40.695ZM22.965 122.67C39.5792 120.01 56.5108 120.01 73.125 122.67V41.895C56.6485 37.8598 39.4415 37.8598 22.965 41.895V122.67ZM11.25 130.17C11.254 131.728 11.8747 133.222 12.9766 134.323C14.0784 135.425 15.5717 136.046 17.13 136.05H73.125V126.495C55.9931 123.679 38.51 123.76 21.405 126.735C21.1395 126.775 20.8686 126.758 20.6101 126.685C20.3516 126.613 20.1113 126.487 19.905 126.315C19.6969 126.141 19.5299 125.922 19.4158 125.676C19.3017 125.43 19.2434 125.161 19.245 124.89V50.505H11.25V130.17Z" fill="white"/>
</svg>
