<svg width="150" height="150" viewBox="0 0 150 150" fill="none" xmlns="http://www.w3.org/2000/svg">
<g clip-path="url(#clip0_2012_26)">
<path d="M62.5852 90.1771C63.8018 90.1771 64.7868 89.1941 64.7868 87.9799C64.7868 86.1259 64.7868 73.7354 64.7868 71.8815C64.7868 69.4496 66.7682 67.472 69.2048 67.472C71.6415 67.472 73.6229 69.4496 73.6229 71.8815V87.9799C73.6229 89.1941 74.7065 90.1771 75.9219 90.1771C77.1385 90.1771 78.1235 89.1941 78.1235 87.9799C78.1235 27.2106 78.1223 38.182 78.1258 31.5021C78.1281 29.0645 80.1163 27.0881 82.553 27.0881H82.5553C84.9862 27.0904 86.9618 29.0737 86.9595 31.5113V57.4253C86.9595 58.6383 87.9457 59.6225 89.1611 59.6225C90.3777 59.6225 91.3627 58.6383 91.3627 57.4253V37.6648H105.002C107.231 37.6648 109.045 35.8543 109.045 33.6296V21.6144C109.045 19.3885 107.231 17.5792 105.002 17.5792H59.933C57.7028 17.5792 55.89 19.3885 55.89 21.6144V33.6284C55.89 35.8543 57.7039 37.6648 59.933 37.6648H73.7215L73.7192 64.3192C72.3983 63.5307 70.8537 63.0764 69.2048 63.0764C66.1146 63.0764 63.3902 64.6705 61.8147 67.0784C60.2564 65.6982 58.2073 64.8594 55.9645 64.8594C52.9947 64.8594 50.3608 66.3322 48.7624 68.5856C47.1823 67.1047 45.0587 66.196 42.7253 66.196C37.8612 66.196 33.9041 70.1454 33.9041 75V113.223C33.8926 125.965 43.4007 125.681 43.3949 133.848L43.3915 141.356C43.3915 146.255 46.0597 149.482 50.5282 149.985C50.7186 150.007 50.0168 149.999 62.3272 149.999C63.5438 149.999 64.5288 149.015 64.5288 147.802C64.5288 146.587 63.5438 145.604 62.3272 145.604H50.9089C48.7566 145.321 47.7958 144.006 47.7958 141.357C47.7958 141.357 47.7992 133.855 47.7992 133.85C47.8061 123.061 38.2969 124.086 38.3072 113.226C38.329 84.2869 38.3072 79.8614 38.3072 74.9988C38.3072 72.5681 40.2898 70.5894 42.7264 70.5894C45.1619 70.5894 47.1445 72.5681 47.1445 74.9988V87.9799C47.1445 89.1929 48.1294 90.1771 49.346 90.1771C50.5615 90.1771 51.5476 89.1929 51.5476 87.9799C51.5476 86.0355 51.5476 75.6431 51.5476 73.6622C51.5476 71.2314 53.529 69.2527 55.9656 69.2527C58.4023 69.2527 60.3837 71.2314 60.3837 73.6622V87.9799C60.3837 89.1941 61.3686 90.1771 62.5852 90.1771ZM73.7215 33.2702H60.2931V21.9738H104.641V33.2702H91.3627V31.5124C91.3661 26.6544 87.4171 22.697 82.5587 22.6936C82.5564 22.6936 82.5553 22.6936 82.5541 22.6936C77.6877 22.6936 73.7261 26.6429 73.7226 31.4998L73.7215 33.2702Z" fill="white"/>
<path d="M63.0519 11.4212V2.19727C63.0519 0.984192 62.0669 0 60.8504 0C59.6349 0 58.6488 0.984192 58.6488 2.19727V11.4212C58.6488 12.6354 59.6349 13.6185 60.8504 13.6185C62.0669 13.6185 63.0519 12.6354 63.0519 11.4212Z" fill="white"/>
<path d="M54.9807 16.0458C55.8407 15.1875 55.8407 13.7959 54.9807 12.9376L48.4459 6.41558C47.5859 5.55727 46.1928 5.55727 45.3328 6.41558C44.4728 7.27389 44.4728 8.66549 45.3328 9.52265L51.8675 16.0458C52.7275 16.9029 54.1207 16.9029 54.9807 16.0458Z" fill="white"/>
<path d="M38.9046 21.9028C38.9046 23.1171 39.8908 24.1001 41.1062 24.1001H50.3482C51.5648 24.1001 52.5498 23.1171 52.5498 21.9028C52.5498 20.6898 51.5648 19.7056 50.3482 19.7056H41.1062C39.8908 19.7056 38.9046 20.6898 38.9046 21.9028Z" fill="white"/>
<path d="M102.727 116.804C102.734 116.79 102.74 116.777 102.745 116.763L115.798 86.9533C120.107 77.5669 106.997 68.9609 99.9797 78.7102L91.3627 89.9998V67.6792C91.3627 66.4661 90.3777 65.4819 89.1611 65.4819C87.9445 65.4819 86.9595 66.4661 86.9595 67.6792V93.1663C86.9595 96.3432 91.0175 97.7051 92.9428 95.1817L103.502 81.3469C103.516 81.3297 103.529 81.3114 103.542 81.2931C107.464 75.8137 113.92 80.5229 111.789 85.1349C111.783 85.1486 111.776 85.1612 111.771 85.1749L98.7253 114.97C96.5042 119.571 93.8234 121.746 90.1621 125.364C84.6422 130.821 88.3951 142.146 85.8611 144.731C85.2935 145.31 84.3016 145.604 82.9142 145.604H72.6024C71.3858 145.604 70.4008 146.587 70.4008 147.802C70.4008 149.015 71.3858 149.999 72.6024 149.999H82.9142C92.1928 149.999 91.3569 141.372 91.2698 137.163C91.303 133.638 91.5725 130.156 93.2604 128.487C96.9881 124.802 100.277 122.067 102.727 116.804Z" fill="white"/>
</g>
<defs>
<clipPath id="clip0_2012_26">
<rect width="150" height="150" fill="white"/>
</clipPath>
</defs>
</svg>
