<svg width="150" height="158" viewBox="0 0 150 158" fill="none" xmlns="http://www.w3.org/2000/svg">
<path d="M114.157 0H2.30676C1.03281 0 0 1.03251 0 2.30676V111.557C0 112.831 1.03281 113.864 2.30676 113.864C3.58071 113.864 4.61352 112.831 4.61352 111.557V4.61352H111.85V16.6911C111.85 17.9654 112.883 18.9979 114.157 18.9979C115.431 18.9979 116.463 17.9654 116.463 16.6911V2.30676C116.463 1.03251 115.431 0 114.157 0Z" fill="white"/>
<path d="M114.157 25.166C112.883 25.166 111.85 26.1985 111.85 27.4728V152.861H4.61352V122.346C4.61352 121.072 3.58071 120.039 2.30676 120.039C1.03281 120.039 0 121.072 0 122.346V155.168C0 156.442 1.03281 157.475 2.30676 157.475H114.157C115.431 157.475 116.463 156.442 116.463 155.168V27.4728C116.463 26.1988 115.431 25.166 114.157 25.166Z" fill="white"/>
<path d="M9.32115 44.8721C9.32115 46.1463 10.354 47.1788 11.6279 47.1788H52.0181C53.292 47.1788 54.3248 46.1463 54.3248 44.8721V35.5509C54.3248 34.2766 53.292 33.2441 52.0181 33.2441H11.6279C10.354 33.2441 9.32115 34.2766 9.32115 35.5509V44.8721ZM13.9347 37.8577H49.7113V42.5653H13.9347V37.8577Z" fill="white"/>
<path d="M11.6279 28.5366H30.2693C31.5432 28.5366 32.5761 27.5041 32.5761 26.2299C32.5761 24.9556 31.5432 23.9231 30.2693 23.9231H11.6279C10.354 23.9231 9.32115 24.9556 9.32115 26.2299C9.32115 27.5041 10.3537 28.5366 11.6279 28.5366Z" fill="white"/>
<path d="M76.8732 9.3208H39.5901C38.3162 9.3208 37.2834 10.3533 37.2834 11.6276C37.2834 12.9018 38.3162 13.9343 39.5901 13.9343H76.8732C78.1472 13.9343 79.18 12.9018 79.18 11.6276C79.18 10.3533 78.1472 9.3208 76.8732 9.3208Z" fill="white"/>
<path d="M9.32115 73.1448C9.32115 74.419 10.354 75.4515 11.6279 75.4515H52.0181C53.292 75.4515 54.3248 74.419 54.3248 73.1448V63.8236C54.3248 62.5494 53.292 61.5168 52.0181 61.5168H11.6279C10.354 61.5168 9.32115 62.5494 9.32115 63.8236V73.1448ZM13.9347 66.1307H49.7113V70.8383H13.9347V66.1307Z" fill="white"/>
<path d="M11.6279 56.8101H30.2693C31.5432 56.8101 32.5761 55.7775 32.5761 54.5033C32.5761 53.229 31.5432 52.1965 30.2693 52.1965H11.6279C10.354 52.1965 9.32115 53.229 9.32115 54.5033C9.32115 55.7775 10.3537 56.8101 11.6279 56.8101Z" fill="white"/>
<path d="M9.32115 101.418C9.32115 102.692 10.354 103.725 11.6279 103.725H52.0181C53.292 103.725 54.3248 102.692 54.3248 101.418V92.0968C54.3248 90.8225 53.292 89.79 52.0181 89.79H11.6279C10.354 89.79 9.32115 90.8225 9.32115 92.0968V101.418ZM13.9347 94.4039H49.7113V99.1115H13.9347V94.4039Z" fill="white"/>
<path d="M11.6279 85.083H30.2693C31.5432 85.083 32.5761 84.0505 32.5761 82.7762C32.5761 81.502 31.5432 80.4695 30.2693 80.4695H11.6279C10.354 80.4695 9.32115 81.502 9.32115 82.7762C9.32115 84.0505 10.3537 85.083 11.6279 85.083Z" fill="white"/>
<path d="M107.143 35.5509C107.143 34.2766 106.11 33.2441 104.836 33.2441H64.4457C63.1717 33.2441 62.1389 34.2766 62.1389 35.5509V44.8721C62.1389 46.1463 63.1717 47.1788 64.4457 47.1788H104.836C106.11 47.1788 107.143 46.1463 107.143 44.8721V35.5509ZM102.529 42.5653H66.7524V37.8577H102.529V42.5653Z" fill="white"/>
<path d="M83.0874 23.9231H64.4457C63.1717 23.9231 62.1389 24.9556 62.1389 26.2299C62.1389 27.5041 63.1717 28.5366 64.4457 28.5366H83.0874C84.3613 28.5366 85.3941 27.5041 85.3941 26.2299C85.3941 24.9556 84.3613 23.9231 83.0874 23.9231Z" fill="white"/>
<path d="M107.143 63.8241C107.143 62.5498 106.11 61.5173 104.836 61.5173H64.4457C63.1717 61.5173 62.1389 62.5498 62.1389 63.8241V73.1453C62.1389 74.4195 63.1717 75.452 64.4457 75.452H104.836C106.11 75.452 107.143 74.4195 107.143 73.1453V63.8241ZM102.529 70.8382H66.7524V66.1305H102.529V70.8382Z" fill="white"/>
<path d="M64.4457 56.8101H83.0874C84.3613 56.8101 85.3941 55.7775 85.3941 54.5033C85.3941 53.229 84.3613 52.1965 83.0874 52.1965H64.4457C63.1717 52.1965 62.1389 53.229 62.1389 54.5033C62.1389 55.7775 63.1717 56.8101 64.4457 56.8101Z" fill="white"/>
<path d="M107.143 92.097C107.143 90.8228 106.11 89.7903 104.836 89.7903H64.4457C63.1717 89.7903 62.1389 90.8228 62.1389 92.097V101.418C62.1389 102.692 63.1717 103.725 64.4457 103.725H104.836C106.11 103.725 107.143 102.692 107.143 101.418V92.097ZM102.529 99.1111H66.7524V94.4035H102.529V99.1111Z" fill="white"/>
<path d="M64.4457 85.083H83.0874C84.3613 85.083 85.3941 84.0505 85.3941 82.7762C85.3941 81.502 84.3613 80.4695 83.0874 80.4695H64.4457C63.1717 80.4695 62.1389 81.502 62.1389 82.7762C62.1389 84.0505 63.1717 85.083 64.4457 85.083Z" fill="white"/>
<path d="M11.6279 126.393H92.4082C93.6821 126.393 94.715 125.361 94.715 124.086C94.715 122.812 93.6821 121.78 92.4082 121.78H11.6279C10.354 121.78 9.32115 122.812 9.32115 124.086C9.32115 125.361 10.3537 126.393 11.6279 126.393Z" fill="white"/>
<path d="M11.6279 117.085H92.4082C93.6821 117.085 94.715 116.052 94.715 114.778C94.715 113.504 93.6821 112.471 92.4082 112.471H11.6279C10.354 112.471 9.32115 113.504 9.32115 114.778C9.32115 116.052 10.3537 117.085 11.6279 117.085Z" fill="white"/>
<path d="M11.6279 135.701H64.4459C65.7199 135.701 66.7527 134.668 66.7527 133.394C66.7527 132.12 65.7199 131.087 64.4459 131.087H11.6279C10.354 131.087 9.32115 132.12 9.32115 133.394C9.32115 134.668 10.3537 135.701 11.6279 135.701Z" fill="white"/>
<path d="M104.836 143.541H79.9803C78.7064 143.541 77.6736 144.573 77.6736 145.847C77.6736 147.122 78.7064 148.154 79.9803 148.154H104.836C106.11 148.154 107.143 147.122 107.143 145.847C107.143 144.573 106.11 143.541 104.836 143.541Z" fill="white"/>
<path d="M144.586 40.7008H140.691V33.6867C140.691 32.4571 139.729 31.4553 138.516 31.3868V21.2592C138.516 19.9849 137.484 18.9524 136.21 18.9524H125.646C124.372 18.9524 123.339 19.9849 123.339 21.2592V31.3868C122.127 31.4556 121.164 32.4574 121.164 33.6867V128.749C121.164 132.082 122.311 135.351 124.393 137.954L128.621 143.239V148.643C128.621 149.918 129.654 150.95 130.928 150.95C132.202 150.95 133.235 149.918 133.235 148.643V143.239L137.463 137.954C139.545 135.351 140.692 132.082 140.692 128.749V114.778C140.692 113.503 139.659 112.471 138.385 112.471C137.111 112.471 136.078 113.503 136.078 114.778V128.749C136.078 131.038 135.29 133.284 133.86 135.072L130.928 138.737L127.996 135.072C126.566 133.284 125.778 131.039 125.778 128.749V85.7045H136.078V103.991C136.078 105.265 137.111 106.297 138.385 106.297C139.659 106.297 140.692 105.265 140.692 103.991V45.3144H144.586C145.028 45.3144 145.387 45.6733 145.387 46.1147V77.1842C145.387 78.4585 146.419 79.491 147.693 79.491C148.967 79.491 150 78.4585 150 77.1842V46.1147C150 43.1297 147.571 40.7008 144.586 40.7008ZM125.778 35.9935H136.078V71.7701H125.778V35.9935ZM127.953 23.5659H133.903V31.38H127.953V23.5659ZM125.778 81.091V76.3837H136.078V81.091H125.778Z" fill="white"/>
</svg>
