<svg width="150" height="150" viewBox="0 0 150 150" fill="none" xmlns="http://www.w3.org/2000/svg">
<path d="M143.027 120.009L138.363 120.475L140.105 137.892L126.563 127.734V51.5625H131.473L137.83 115.153L142.494 114.686L135.926 48.9844C135.868 48.4062 135.597 47.8703 135.166 47.4805C134.735 47.0908 134.175 46.875 133.594 46.875H107.813V28.125C107.814 24.2328 106.847 20.4014 104.996 16.9772C103.146 13.5529 100.472 10.6436 97.215 8.51217C93.9582 6.38076 90.2217 5.0944 86.3431 4.76934C82.4645 4.44429 78.5661 5.09077 75 6.65037C71.4339 5.09077 67.5355 4.44429 63.6569 4.76934C59.7783 5.0944 56.0418 6.38076 52.7851 8.51217C49.5283 10.6436 46.854 13.5529 45.0037 16.9772C43.1535 20.4014 42.1856 24.2328 42.1875 28.125V46.875H16.4062C15.8252 46.875 15.2649 47.0908 14.834 47.4805C14.4031 47.8703 14.1323 48.4062 14.0742 48.9844L12.5112 64.6134L17.1756 65.0798L18.5273 51.5625H30.4688V73.5515L22.3893 77.5913C22 77.7859 21.6726 78.0852 21.4438 78.4554C21.215 78.8256 21.0938 79.2523 21.0938 79.6875V89.0625H25.7812V81.1359L30.4688 78.7922V84.375H35.1563V78.7922L39.8438 81.1359V105.469H25.7812V93.75H21.0938V107.812C21.0938 108.434 21.3407 109.03 21.7802 109.47C22.2198 109.909 22.8159 110.156 23.4375 110.156H42.1875C42.8091 110.156 43.4053 109.909 43.8448 109.47C44.2843 109.03 44.5313 108.434 44.5313 107.812V79.6875C44.5312 79.2523 44.41 78.8256 44.1812 78.4554C43.9524 78.0852 43.625 77.7859 43.2357 77.5913L35.1563 73.5515V51.5625H42.1875V56.8843C41.2939 57.4002 40.5955 58.1966 40.2006 59.1499C39.8057 60.1033 39.7364 61.1602 40.0035 62.157C40.2705 63.1537 40.859 64.0344 41.6777 64.6626C42.4963 65.2908 43.4994 65.6313 44.5313 65.6313C45.5631 65.6313 46.5662 65.2908 47.3848 64.6626C48.2035 64.0344 48.792 63.1537 49.059 62.157C49.3261 61.1602 49.2568 60.1033 48.8619 59.1499C48.4671 58.1966 47.7686 57.4002 46.875 56.8843V51.5625H84.375V56.8843C83.4814 57.4002 82.783 58.1966 82.3881 59.1499C81.9932 60.1033 81.9239 61.1602 82.191 62.157C82.458 63.1537 83.0465 64.0344 83.8652 64.6626C84.6838 65.2908 85.6869 65.6313 86.7188 65.6313C87.7506 65.6313 88.7537 65.2908 89.5723 64.6626C90.391 64.0344 90.9795 63.1537 91.2465 62.157C91.5136 61.1602 91.4443 60.1033 91.0494 59.1499C90.6546 58.1966 89.9561 57.4002 89.0625 56.8843V51.5625H112.254L103.348 140.625H9.62109L16.5938 70.911L11.9294 70.4446L4.69922 142.734C4.66646 143.06 4.70239 143.389 4.80467 143.701C4.90695 144.012 5.07333 144.298 5.29306 144.541C5.51279 144.784 5.781 144.978 6.08039 145.111C6.37978 145.244 6.70369 145.312 7.03125 145.312H142.969C143.296 145.312 143.62 145.244 143.92 145.111C144.219 144.978 144.487 144.784 144.707 144.541C144.927 144.298 145.093 144.012 145.195 143.701C145.298 143.389 145.334 143.06 145.301 142.734L143.027 120.009ZM60.9375 46.875H46.875V28.125C46.8729 25.3124 47.5041 22.5354 48.7218 20C49.9394 17.4646 51.7122 15.2359 53.9088 13.4791C56.1053 11.7224 58.6691 10.4827 61.4102 9.85206C64.1512 9.22141 66.999 9.21596 69.7424 9.83612C66.9957 12.0278 64.7779 14.81 63.2536 17.9761C61.7294 21.1423 60.9377 24.611 60.9375 28.125V46.875ZM84.375 46.875H65.625V28.125C65.6275 24.8356 66.495 21.6047 68.1405 18.7564C69.786 15.9082 72.1516 13.5427 75 11.8974C77.8484 13.5427 80.214 15.9082 81.8595 18.7564C83.505 21.6047 84.3725 24.8356 84.375 28.125V46.875ZM103.125 46.875H89.0625V28.125C89.0623 24.611 88.2706 21.1423 86.7464 17.9761C85.2221 14.81 83.0043 12.0278 80.2576 9.83612C83.001 9.21596 85.8488 9.22141 88.5899 9.85206C91.3309 10.4827 93.8947 11.7224 96.0912 13.4791C98.2878 15.2359 100.061 17.4646 101.278 20C102.496 22.5354 103.127 25.3124 103.125 28.125V46.875ZM116.965 51.5625H121.875V127.734L108.332 137.892L116.965 51.5625ZM112.5 140.625L124.219 131.836L135.938 140.625H112.5Z" fill="white"/>
</svg>
