<svg width="20" height="20" viewBox="0 0 20 20" fill="none" xmlns="http://www.w3.org/2000/svg">
<path d="M2.87432 14.2162C2.84494 14.2162 2.81494 14.2119 2.78526 14.2034C2.61994 14.1541 2.52557 13.98 2.57494 13.8147C3.28651 11.4228 6.04432 10.4859 7.62432 10.1397C7.79213 10.1031 7.95932 10.2094 7.99619 10.3784C8.03307 10.5469 7.92619 10.7134 7.75776 10.75C6.31182 11.0669 3.79369 11.9084 3.17338 13.9928C3.13338 14.1291 3.00932 14.2162 2.87432 14.2162Z" fill="black"/>
<path d="M17.1253 14.2162C16.9903 14.2162 16.8662 14.1291 16.8256 13.9928C16.2081 11.9153 13.6881 11.0694 12.2406 10.75C12.0721 10.7128 11.9656 10.5462 12.0028 10.3778C12.04 10.2094 12.2043 10.1025 12.3753 10.1397C13.9568 10.4887 16.7159 11.43 17.4246 13.8147C17.4737 13.98 17.3793 14.1541 17.214 14.2034C17.1843 14.2122 17.1546 14.2162 17.1253 14.2162Z" fill="black"/>
<path d="M10.0159 11.665C8.72183 11.665 7.50402 10.9831 6.83746 9.88654C6.03465 8.56498 6.16152 6.80904 7.14621 5.61654C7.83996 4.77623 8.91308 4.27435 10.0175 4.27435C10.4487 4.27435 10.8706 4.34873 11.2712 4.49529C12.7228 5.02685 13.6981 6.42217 13.6981 7.96873C13.6981 9.71748 12.4559 11.2415 10.745 11.5912C10.5059 11.64 10.2606 11.665 10.0159 11.665ZM10.0175 4.89935C9.09808 4.89935 8.20465 5.31623 7.6284 6.01435C6.81027 7.0056 6.70465 8.46435 7.37152 9.56185C7.92527 10.4737 8.93902 11.04 10.0159 11.04C10.2187 11.04 10.4218 11.0194 10.6196 10.979C12.0184 10.6928 13.0731 9.39873 13.0731 7.96873C13.0731 6.70342 12.244 5.51685 11.0565 5.08248C10.7246 4.96092 10.375 4.89935 10.0175 4.89935Z" fill="black"/>
<path d="M10.0168 18.4297C10.0165 18.4297 10.0165 18.4297 10.0162 18.4297C8.28341 18.4297 6.56154 17.8931 5.1681 16.9178C2.76841 15.2394 1.39341 12.3797 1.57935 9.45624C1.76372 6.56187 3.47279 3.91499 6.03904 2.54843C7.23966 1.90874 8.60747 1.57062 9.99404 1.57062C11.5659 1.57062 13.0909 1.99656 14.4047 2.80218C16.8922 4.32749 18.4372 7.08562 18.4372 9.99999C18.4372 10.3594 18.4143 10.7222 18.3687 11.0784C18.0028 13.9459 16.1372 16.4753 13.5 17.6794C12.4247 18.1703 11.22 18.4297 10.0168 18.4297ZM9.99372 2.19531C8.70904 2.19531 7.44279 2.50843 6.33216 3.09999C3.95591 4.36531 2.37372 6.81656 2.2031 9.49593C2.03091 12.2034 3.30435 14.8512 5.52654 16.4056C6.81591 17.3078 8.4106 17.8047 10.0165 17.8047C11.1306 17.8047 12.2459 17.5647 13.2406 17.1106C15.6825 15.9956 17.41 13.6541 17.7487 10.9991C17.7909 10.6687 17.8122 10.3331 17.8122 9.99999C17.8122 7.30155 16.3812 4.74718 14.0781 3.33499C12.8625 2.58968 11.4506 2.19531 9.99372 2.19531Z" fill="black"/>
</svg>
