<svg width="32" height="32" viewBox="0 0 32 32" fill="none" xmlns="http://www.w3.org/2000/svg">
<path d="M16.0001 30.7196L2.70916 17.4192C0.963601 15.6271 0 13.2708 0 10.7873C0 5.55623 4.24538 1.30783 9.47274 1.30783C11.8181 1.30783 14.1637 2.32675 16.0001 4.11887C17.8365 2.32675 20.1818 1.30783 22.5272 1.30783C27.7545 1.30783 31.9999 5.55623 31.9999 10.7873C31.9999 13.2798 31.0363 15.6362 29.291 17.4192L16.0001 30.7196ZM9.47274 2.76332C5.04545 2.76332 1.45446 6.35687 1.45446 10.7873C1.45446 12.8979 2.27264 14.8902 3.74547 16.4003L16.0001 28.6636L28.2638 16.3913C29.7363 14.8902 30.5455 12.8979 30.5455 10.7873C30.5455 6.36593 26.9545 2.76332 22.5272 2.76332C20.3637 2.76332 18.1728 3.81849 16.5455 5.65618L16.0001 6.26572L15.4546 5.65618C13.8273 3.81849 11.6365 2.76332 9.47274 2.76332Z" fill="black"/>
</svg>
