<svg width="34" height="35" viewBox="0 0 34 35" fill="none" xmlns="http://www.w3.org/2000/svg">
<path d="M28.5455 6.49053H25.0222L25.1263 5.71515L26.2493 2.83793L26.2537 2.82648C26.2573 2.81686 26.2586 2.80723 26.2617 2.7976C26.2677 2.78057 26.2725 2.76319 26.2763 2.74556C26.279 2.72929 26.2806 2.71287 26.2813 2.69639C26.2813 2.68494 26.2849 2.67375 26.2849 2.66178V0.455339C26.2849 0.395533 26.2732 0.336307 26.2503 0.281048C26.2274 0.225788 26.1939 0.175578 26.1516 0.133289C26.1093 0.0910005 26.0591 0.0574618 26.0039 0.034591C25.9486 0.0117202 25.8894 -3.41295e-05 25.8296 7.44328e-08H12.5956C12.4748 7.44328e-08 12.359 0.047973 12.2736 0.133366C12.1882 0.218758 12.1403 0.334575 12.1403 0.455339V2.66178C12.1403 2.67271 12.1429 2.68286 12.1436 2.69352C12.1444 2.71096 12.1461 2.72833 12.1488 2.74556C12.1524 2.76177 12.157 2.77775 12.1624 2.79344C12.1658 2.80463 12.1673 2.81581 12.1715 2.82674L13.295 5.70214L14.4893 22.4287C14.4976 22.5435 14.549 22.651 14.6333 22.7294C14.7176 22.8079 14.8284 22.8515 14.9436 22.8515H15.5439V27.0979C15.5438 27.1577 15.5556 27.2169 15.5784 27.2722C15.6013 27.3274 15.6349 27.3776 15.6771 27.4199C15.7194 27.4622 15.7696 27.4957 15.8249 27.5186C15.8802 27.5415 15.9394 27.5532 15.9992 27.5532H26.4535C26.5133 27.5532 26.5725 27.5415 26.6278 27.5186C26.6831 27.4957 26.7333 27.4622 26.7756 27.4199C26.8178 27.3776 26.8514 27.3274 26.8743 27.2722C26.8971 27.2169 26.9089 27.1577 26.9088 27.0979V25.0101L28.9972 9.09689C28.9972 9.08674 28.9972 9.07685 28.9972 9.06645C28.9972 9.05604 29 9.04771 29 9.03782V6.94587C29.0001 6.82522 28.9522 6.70948 28.867 6.62409C28.7818 6.53871 28.6661 6.49067 28.5455 6.49053ZM13.0509 0.909377H25.374V2.20514H13.0509V0.909377ZM13.2622 3.11582H25.1627L24.3707 5.14533H14.0542L13.2622 3.11582ZM15.3674 21.9408L14.2317 6.05601H24.1615L24.1032 6.49053H20.1776C20.1178 6.49049 20.0586 6.50225 20.0033 6.52512C19.9481 6.54799 19.8979 6.58153 19.8556 6.62382C19.8133 6.66611 19.7798 6.71632 19.7569 6.77158C19.734 6.82684 19.7223 6.88606 19.7223 6.94587V9.0386C19.7223 9.04849 19.7246 9.0576 19.7252 9.06723C19.7257 9.07685 19.7252 9.08752 19.7252 9.09767L21.4104 21.9416L15.3674 21.9408ZM21.8143 26.6425H16.4543V22.8515H21.5306L21.814 25.0111L21.8143 26.6425ZM25.9982 26.6425H22.7249V25.4378H25.9982V26.6425ZM26.0536 24.5272H22.6695L20.6967 9.49316H28.0264L26.0536 24.5272ZM28.0901 8.58249H20.6325V7.40121H28.0896L28.0901 8.58249Z" fill="black"/>
<path d="M12.9827 17.7447H12.4077V14.219C12.4072 14.0984 12.359 13.9829 12.2737 13.8977C12.1885 13.8124 12.073 13.7643 11.9524 13.7637H11.3513V5.95009C11.3515 5.89026 11.3398 5.83098 11.3169 5.77568C11.2941 5.72037 11.2606 5.67012 11.2183 5.62781C11.176 5.5855 11.1257 5.55197 11.0704 5.52913C11.0151 5.5063 10.9558 5.49461 10.896 5.49475C9.88599 5.49565 8.91762 5.89726 8.20344 6.61144C7.48926 7.32562 7.08765 8.29399 7.08675 9.30399V13.7637H6.48831C6.36759 13.7638 6.25185 13.8119 6.16649 13.8972C6.08112 13.9826 6.03311 14.0983 6.03297 14.219V17.7447H5.45534C5.33462 17.7448 5.21888 17.7928 5.13352 17.8782C5.04815 17.9635 5.00014 18.0793 5 18.2V25.3319C5.00055 25.9211 5.23484 26.4859 5.65143 26.9025C6.06803 27.3191 6.6329 27.5534 7.22205 27.554H11.216C11.8052 27.5534 12.37 27.3191 12.7866 26.9025C13.2032 26.4859 13.4375 25.9211 13.4381 25.3319V18.2C13.4382 18.1402 13.4265 18.0809 13.4037 18.0256C13.3809 17.9703 13.3473 17.92 13.305 17.8777C13.2627 17.8354 13.2125 17.8019 13.1572 17.779C13.1018 17.7562 13.0426 17.7445 12.9827 17.7447ZM7.99743 9.30399C7.99813 8.61835 8.24149 7.95509 8.68439 7.4317C9.12729 6.90831 9.74116 6.55858 10.4172 6.44446C10.3262 7.58671 9.90725 10.3291 7.99743 10.7064V9.30399ZM7.99743 11.6327C9.033 11.4948 9.86042 10.8808 10.4406 9.82958V13.7637H7.99743V11.6327ZM6.94365 14.6744H11.497V17.7447H6.94365V14.6744ZM12.5274 25.3319C12.5271 25.6796 12.3888 26.013 12.1429 26.2588C11.8971 26.5047 11.5637 26.6429 11.216 26.6433H7.22205C6.87436 26.6429 6.54101 26.5047 6.29515 26.2588C6.04929 26.013 5.91102 25.6796 5.91068 25.3319V18.6553H12.5274V25.3319Z" fill="black"/>
<path d="M1.35301 33.06C1.20501 33.06 1.06101 33.046 0.921008 33.018C0.781008 32.994 0.665008 32.968 0.573008 32.94V32.64H1.23301C1.45701 32.64 1.62701 32.608 1.74301 32.544C1.86301 32.476 1.92301 32.368 1.92301 32.22C1.92301 32.116 1.88901 32.032 1.82101 31.968C1.75301 31.9 1.66501 31.842 1.55701 31.794C1.45301 31.746 1.33901 31.698 1.21501 31.65C1.09501 31.598 0.981008 31.538 0.873008 31.47C0.769008 31.398 0.683008 31.308 0.615008 31.2C0.547008 31.088 0.513008 30.948 0.513008 30.78C0.513008 30.448 0.613008 30.226 0.813008 30.114C1.01701 29.998 1.30701 29.94 1.68301 29.94C1.83501 29.94 1.98101 29.952 2.12101 29.976C2.26101 30 2.37501 30.028 2.46301 30.06V30.36H1.80301C1.63901 30.36 1.50301 30.39 1.39501 30.45C1.28701 30.51 1.23301 30.6 1.23301 30.72C1.23301 30.824 1.26701 30.91 1.33501 30.978C1.40301 31.042 1.48901 31.098 1.59301 31.146C1.70101 31.194 1.81501 31.244 1.93501 31.296C2.05901 31.344 2.17301 31.404 2.27701 31.476C2.38501 31.544 2.47301 31.632 2.54101 31.74C2.60901 31.848 2.64301 31.988 2.64301 32.16C2.64301 32.4 2.59501 32.586 2.49901 32.718C2.40701 32.846 2.26501 32.936 2.07301 32.988C1.88501 33.036 1.64501 33.06 1.35301 33.06ZM3.24324 33V28.8H3.96324V30.12C4.03924 30.06 4.12724 30.016 4.22724 29.988C4.33124 29.956 4.44324 29.94 4.56324 29.94C4.73524 29.94 4.89124 29.966 5.03124 30.018C5.17124 30.07 5.28324 30.166 5.36724 30.306C5.45124 30.442 5.49324 30.64 5.49324 30.9V33H4.77324V30.9C4.77324 30.688 4.72324 30.546 4.62324 30.474C4.52324 30.398 4.41324 30.36 4.29324 30.36C4.21724 30.36 4.15124 30.372 4.09524 30.396C4.03924 30.42 3.99524 30.448 3.96324 30.48V33H3.24324ZM7.32184 33.06C7.06184 33.06 6.84184 33.01 6.66184 32.91C6.48584 32.806 6.35184 32.64 6.25984 32.412C6.16784 32.184 6.12184 31.88 6.12184 31.5C6.12184 31.12 6.16784 30.816 6.25984 30.588C6.35184 30.36 6.48584 30.196 6.66184 30.096C6.84184 29.992 7.06184 29.94 7.32184 29.94C7.58184 29.94 7.79984 29.992 7.97584 30.096C8.15584 30.196 8.29184 30.36 8.38384 30.588C8.47584 30.816 8.52184 31.12 8.52184 31.5C8.52184 31.88 8.47584 32.184 8.38384 32.412C8.29184 32.64 8.15584 32.806 7.97584 32.91C7.79984 33.01 7.58184 33.06 7.32184 33.06ZM7.32184 32.67C7.41384 32.67 7.49584 32.638 7.56784 32.574C7.63984 32.506 7.69584 32.388 7.73584 32.22C7.77984 32.048 7.80184 31.808 7.80184 31.5C7.80184 31.188 7.77984 30.948 7.73584 30.78C7.69584 30.612 7.63984 30.496 7.56784 30.432C7.49584 30.364 7.41384 30.33 7.32184 30.33C7.23384 30.33 7.15184 30.364 7.07584 30.432C7.00384 30.496 6.94584 30.612 6.90184 30.78C6.86184 30.948 6.84184 31.188 6.84184 31.5C6.84184 31.808 6.86184 32.048 6.90184 32.22C6.94584 32.388 7.00384 32.506 7.07584 32.574C7.15184 32.638 7.23384 32.67 7.32184 32.67ZM9.15465 34.2V30H9.66465L9.75465 30.18H9.78465C9.84865 30.12 9.93265 30.066 10.0366 30.018C10.1446 29.966 10.2806 29.94 10.4446 29.94C10.6446 29.94 10.8206 29.992 10.9726 30.096C11.1286 30.196 11.2486 30.36 11.3326 30.588C11.4206 30.816 11.4646 31.12 11.4646 31.5C11.4646 31.88 11.4206 32.184 11.3326 32.412C11.2446 32.64 11.1186 32.806 10.9546 32.91C10.7946 33.01 10.6046 33.06 10.3846 33.06C10.2806 33.06 10.1846 33.046 10.0966 33.018C10.0126 32.99 9.93865 32.954 9.87465 32.91V34.2H9.15465ZM10.2046 32.64C10.3046 32.64 10.3946 32.608 10.4746 32.544C10.5586 32.476 10.6246 32.36 10.6726 32.196C10.7206 32.032 10.7446 31.8 10.7446 31.5C10.7446 31.2 10.7206 30.968 10.6726 30.804C10.6246 30.636 10.5586 30.52 10.4746 30.456C10.3946 30.392 10.3046 30.36 10.2046 30.36C10.1286 30.36 10.0646 30.372 10.0126 30.396C9.96465 30.42 9.91865 30.448 9.87465 30.48V32.52C9.90665 32.548 9.95065 32.576 10.0066 32.604C10.0626 32.628 10.1286 32.64 10.2046 32.64ZM12.0961 34.2V30H12.6061L12.6961 30.18H12.7261C12.7901 30.12 12.8741 30.066 12.9781 30.018C13.0861 29.966 13.2221 29.94 13.3861 29.94C13.5861 29.94 13.7621 29.992 13.9141 30.096C14.0701 30.196 14.1901 30.36 14.2741 30.588C14.3621 30.816 14.4061 31.12 14.4061 31.5C14.4061 31.88 14.3621 32.184 14.2741 32.412C14.1861 32.64 14.0601 32.806 13.8961 32.91C13.7361 33.01 13.5461 33.06 13.3261 33.06C13.2221 33.06 13.1261 33.046 13.0381 33.018C12.9541 32.99 12.8801 32.954 12.8161 32.91V34.2H12.0961ZM13.1461 32.64C13.2461 32.64 13.3361 32.608 13.4161 32.544C13.5001 32.476 13.5661 32.36 13.6141 32.196C13.6621 32.032 13.6861 31.8 13.6861 31.5C13.6861 31.2 13.6621 30.968 13.6141 30.804C13.5661 30.636 13.5001 30.52 13.4161 30.456C13.3361 30.392 13.2461 30.36 13.1461 30.36C13.0701 30.36 13.0061 30.372 12.9541 30.396C12.9061 30.42 12.8601 30.448 12.8161 30.48V32.52C12.8481 32.548 12.8921 32.576 12.9481 32.604C13.0041 32.628 13.0701 32.64 13.1461 32.64ZM15.0675 33V30H15.7875V33H15.0675ZM15.0675 29.64V28.92H15.7875V29.64H15.0675ZM16.5961 33V30H17.1061L17.1961 30.18H17.2261C17.2901 30.12 17.3761 30.066 17.4841 30.018C17.5921 29.966 17.7361 29.94 17.9161 29.94C18.0881 29.94 18.2441 29.966 18.3841 30.018C18.5241 30.07 18.6361 30.166 18.7201 30.306C18.8041 30.442 18.8461 30.64 18.8461 30.9V33H18.1261V30.9C18.1261 30.688 18.0761 30.546 17.9761 30.474C17.8761 30.398 17.7661 30.36 17.6461 30.36C17.5701 30.36 17.5041 30.372 17.4481 30.396C17.3921 30.42 17.3481 30.448 17.3161 30.48V33H16.5961ZM20.4954 34.26C20.3474 34.26 20.2034 34.246 20.0634 34.218C19.9234 34.194 19.8074 34.168 19.7154 34.14V33.84H20.3754C20.5994 33.84 20.7694 33.77 20.8854 33.63C21.0054 33.494 21.0654 33.254 21.0654 32.91C21.0054 32.954 20.9314 32.99 20.8434 33.018C20.7554 33.046 20.6594 33.06 20.5554 33.06C20.3354 33.06 20.1434 33.01 19.9794 32.91C19.8194 32.806 19.6954 32.64 19.6074 32.412C19.5194 32.184 19.4754 31.88 19.4754 31.5C19.4754 31.12 19.5234 30.816 19.6194 30.588C19.7154 30.36 19.8594 30.196 20.0514 30.096C20.2474 29.992 20.4954 29.94 20.7954 29.94C21.0074 29.94 21.1874 29.956 21.3354 29.988C21.4874 30.016 21.6374 30.06 21.7854 30.12V32.76C21.7854 33.12 21.7374 33.41 21.6414 33.63C21.5494 33.85 21.4074 34.01 21.2154 34.11C21.0274 34.21 20.7874 34.26 20.4954 34.26ZM20.7354 32.64C20.8114 32.64 20.8774 32.628 20.9334 32.604C20.9934 32.576 21.0374 32.548 21.0654 32.52V30.36H20.7954C20.6754 30.36 20.5694 30.392 20.4774 30.456C20.3894 30.52 20.3194 30.636 20.2674 30.804C20.2194 30.968 20.1954 31.2 20.1954 31.5C20.1954 31.8 20.2194 32.032 20.2674 32.196C20.3154 32.36 20.3794 32.476 20.4594 32.544C20.5434 32.608 20.6354 32.64 20.7354 32.64ZM24.0968 33V28.8H24.8168V31.29L25.5368 30H26.3168L25.5068 31.41L26.3768 33H25.5968L24.8168 31.53V33H24.0968ZM27.5479 33.06C27.3799 33.06 27.2239 33.034 27.0799 32.982C26.9399 32.93 26.8279 32.836 26.7439 32.7C26.6599 32.56 26.6179 32.36 26.6179 32.1C26.6179 31.84 26.6599 31.642 26.7439 31.506C26.8319 31.366 26.9499 31.27 27.0979 31.218C27.2499 31.166 27.4199 31.14 27.6079 31.14C27.6999 31.14 27.7879 31.146 27.8719 31.158C27.9599 31.17 28.0419 31.184 28.1179 31.2V30.96C28.1179 30.72 28.0619 30.56 27.9499 30.48C27.8379 30.4 27.6839 30.36 27.4879 30.36H26.8879V30.06C26.9799 30.028 27.0919 30 27.2239 29.976C27.3599 29.952 27.4879 29.94 27.6079 29.94C27.8799 29.94 28.1059 29.968 28.2859 30.024C28.4699 30.076 28.6079 30.176 28.6999 30.324C28.7919 30.468 28.8379 30.68 28.8379 30.96V33H28.3279L28.2379 32.82H28.2079C28.1439 32.88 28.0579 32.936 27.9499 32.988C27.8459 33.036 27.7119 33.06 27.5479 33.06ZM27.7879 32.64C27.8639 32.64 27.9299 32.628 27.9859 32.604C28.0459 32.576 28.0899 32.548 28.1179 32.52V31.56H27.7879C27.7199 31.56 27.6499 31.576 27.5779 31.608C27.5099 31.64 27.4519 31.696 27.4039 31.776C27.3599 31.852 27.3379 31.96 27.3379 32.1C27.3379 32.24 27.3599 32.35 27.4039 32.43C27.4519 32.506 27.5099 32.56 27.5779 32.592C27.6499 32.624 27.7199 32.64 27.7879 32.64ZM29.6156 33V30H30.1256L30.2156 30.18H30.2456C30.3096 30.12 30.3956 30.066 30.5036 30.018C30.6116 29.966 30.7556 29.94 30.9356 29.94C31.0876 29.94 31.2156 29.962 31.3196 30.006C31.4276 30.046 31.5196 30.104 31.5956 30.18C31.6876 30.104 31.7956 30.046 31.9196 30.006C32.0436 29.962 32.1956 29.94 32.3756 29.94C32.5356 29.94 32.6836 29.966 32.8196 30.018C32.9556 30.07 33.0656 30.166 33.1496 30.306C33.2336 30.442 33.2756 30.64 33.2756 30.9V33H32.5556V30.9C32.5556 30.76 32.5316 30.652 32.4836 30.576C32.4396 30.496 32.3836 30.44 32.3156 30.408C32.2476 30.376 32.1776 30.36 32.1056 30.36C32.0296 30.36 31.9616 30.37 31.9016 30.39C31.8416 30.406 31.7896 30.426 31.7456 30.45C31.7616 30.494 31.7756 30.558 31.7876 30.642C31.7996 30.722 31.8056 30.808 31.8056 30.9V33H31.0856V30.9C31.0856 30.76 31.0636 30.652 31.0196 30.576C30.9756 30.496 30.9196 30.44 30.8516 30.408C30.7876 30.376 30.7256 30.36 30.6656 30.36C30.5896 30.36 30.5236 30.372 30.4676 30.396C30.4116 30.42 30.3676 30.448 30.3356 30.48V33H29.6156Z" fill="black"/>
</svg>
