<svg width="17" height="17" viewBox="0 0 17 17" fill="none" xmlns="http://www.w3.org/2000/svg">
<circle opacity="0.87" cx="8.435" cy="8.435" r="8.085" fill="white" stroke="black" stroke-width="0.7"/>
<path d="M8.152 9.312C8.152 9.12 8.17333 8.944 8.216 8.784C8.264 8.624 8.336 8.48 8.432 8.352C8.53333 8.21867 8.664 8.10133 8.824 8C8.92 7.936 9.02933 7.86933 9.152 7.8C9.28 7.73067 9.4 7.65067 9.512 7.56C9.62933 7.464 9.72533 7.352 9.8 7.224C9.87467 7.09067 9.912 6.93333 9.912 6.752C9.912 6.54933 9.864 6.38133 9.768 6.248C9.67733 6.10933 9.55733 6.00533 9.408 5.936C9.25867 5.86667 9.09867 5.832 8.928 5.832C8.752 5.832 8.58667 5.86667 8.432 5.936C8.27733 6.00533 8.14133 6.09867 8.024 6.216C7.912 6.328 7.81867 6.45333 7.744 6.592L7.272 6.28C7.368 6.06133 7.50133 5.87467 7.672 5.72C7.848 5.56533 8.04533 5.448 8.264 5.368C8.48267 5.288 8.70933 5.248 8.944 5.248C9.14133 5.248 9.33333 5.28 9.52 5.344C9.712 5.40267 9.88267 5.496 10.032 5.624C10.1867 5.752 10.3093 5.912 10.4 6.104C10.4907 6.296 10.536 6.52267 10.536 6.784C10.536 6.98667 10.5093 7.16 10.456 7.304C10.4027 7.448 10.328 7.57333 10.232 7.68C10.1413 7.78667 10.0347 7.88 9.912 7.96C9.78933 8.04 9.66133 8.11733 9.528 8.192C9.4 8.26133 9.27467 8.33867 9.152 8.424C9.03467 8.50933 8.936 8.62133 8.856 8.76C8.78133 8.89333 8.744 9.07733 8.744 9.312H8.152ZM8.168 11V10.072H8.76V11H8.168Z" fill="black"/>
</svg>
