<svg width="18" height="18" viewBox="0 0 18 18" fill="none" xmlns="http://www.w3.org/2000/svg">
<path d="M9 18C13.9706 18 18 13.9706 18 9C18 4.02944 13.9706 0 9 0C4.02944 0 0 4.02944 0 9C0 13.9706 4.02944 18 9 18Z" fill="#4D76A1"/>
<path fill-rule="evenodd" clip-rule="evenodd" d="M8.66005 12.9472H9.36644C9.36644 12.9472 9.57982 12.9238 9.68875 12.8064C9.78902 12.6986 9.78581 12.4961 9.78581 12.4961C9.78581 12.4961 9.77202 11.5483 10.2119 11.4087C10.6456 11.2712 11.2024 12.3247 11.7927 12.7298C12.239 13.0364 12.5782 12.9692 12.5782 12.9692L14.1563 12.9472C14.1563 12.9472 14.9819 12.8964 14.5905 12.2473C14.5584 12.1942 14.3625 11.7671 13.4171 10.8895C12.4275 9.97103 12.56 10.1196 13.7521 8.53082C14.478 7.56324 14.7682 6.97253 14.6776 6.71952C14.5911 6.47855 14.0572 6.54224 14.0572 6.54224L12.2802 6.55331C12.2802 6.55331 12.1485 6.53535 12.0508 6.59374C11.9554 6.65102 11.8939 6.7845 11.8939 6.7845C11.8939 6.7845 11.6127 7.53324 11.2376 8.17C10.4463 9.51363 10.1299 9.58455 10.0006 9.50112C9.69982 9.30667 9.7749 8.71997 9.7749 8.30316C9.7749 7.00108 9.9724 6.45818 9.39034 6.31764C9.19718 6.27095 9.05504 6.24015 8.56106 6.23517C7.92703 6.2286 7.39038 6.2371 7.08652 6.38598C6.88437 6.48497 6.72843 6.70557 6.82341 6.71824C6.94085 6.73396 7.20684 6.78995 7.34787 6.98199C7.52996 7.2297 7.52354 7.78609 7.52354 7.78609C7.52354 7.78609 7.62814 9.31887 7.2792 9.5093C7.03967 9.63989 6.7111 9.37325 6.00568 8.15428C5.64422 7.52987 5.37132 6.83969 5.37132 6.83969C5.37132 6.83969 5.3187 6.7107 5.22485 6.64171C5.11094 6.55813 4.95179 6.5315 4.95179 6.5315L3.26323 6.54256C3.26323 6.54256 3.00974 6.54962 2.91669 6.65984C2.83391 6.75787 2.91011 6.96066 2.91011 6.96066C2.91011 6.96066 4.23209 10.0535 5.72893 11.6121C7.10144 13.0411 8.66005 12.9472 8.66005 12.9472Z" fill="white"/>
</svg>
