<svg width="18" height="18" viewBox="0 0 18 18" fill="none" xmlns="http://www.w3.org/2000/svg">
<path d="M3.97498 16.425L4.31249 16.6125C5.69999 17.475 7.31251 18 9 18C13.9125 18 18 13.9125 18 8.92498C18 3.93747 13.9125 0 8.96249 0C4.01249 0 0 3.97498 0 8.92498C0 10.65 0.487506 12.3375 1.3875 13.7625L1.61252 14.1L0.750035 17.25L3.97498 16.425Z" fill="#55CD6C"/>
<path d="M6.075 3.90006L5.36252 3.86255C5.1375 3.86255 4.91253 3.93757 4.76253 4.08757C4.42502 4.38756 3.86254 4.95005 3.71254 5.70008C3.45005 6.82509 3.86254 8.17508 4.83755 9.52507C5.81256 10.8751 7.68756 13.0501 10.9875 13.9876C12.0375 14.2876 12.8625 14.1 13.5376 13.6876C14.0626 13.3501 14.4 12.8251 14.5126 12.2626L14.6251 11.7375C14.6626 11.5875 14.5875 11.4 14.4375 11.3251L12.075 10.2376C11.925 10.1625 11.7375 10.2 11.625 10.35L10.6875 11.55C10.6125 11.6251 10.5 11.6625 10.3875 11.625C9.75003 11.4 7.61254 10.5 6.45002 8.25006C6.41251 8.13757 6.41251 8.02504 6.48753 7.95006L7.38752 6.93758C7.46254 6.8251 7.50001 6.6751 7.46254 6.56257L6.37504 4.12508C6.33749 4.01255 6.225 3.90006 6.075 3.90006Z" fill="#FEFEFE"/>
</svg>
