<svg width="9" height="17" viewBox="0 0 9 17" fill="none" xmlns="http://www.w3.org/2000/svg">
<path d="M5.175 8.75758C7.28411 8.75758 9 6.79325 9 4.37879C9 1.96432 7.28411 0 5.175 0C5.16677 0 5.15858 0.000154545 5.15043 0.000515151H2.0259C2.02558 0.000515151 2.02532 0.000463636 2.02505 0.000463636C1.65227 0.000463636 1.35005 0.346439 1.35005 0.773191V0.773242V7.98485V10.303H0.675C0.30222 10.303 0 10.649 0 11.0758C0 11.5025 0.30222 11.8485 0.675 11.8485H1.35V16.2273C1.35 16.654 1.65222 17 2.025 17C2.39778 17 2.7 16.654 2.7 16.2273V11.8485H5.175C5.54778 11.8485 5.85 11.5025 5.85 11.0758C5.85 10.649 5.54778 10.303 5.175 10.303H2.7V8.75758H5.175ZM5.175 1.54597C5.18229 1.54597 5.18958 1.54582 5.19678 1.54556C6.55155 1.55895 7.65 2.82478 7.65 4.37879C7.65 5.94109 6.53972 7.21212 5.175 7.21212H2.7V1.54597H5.175Z" fill="#FB3A61"/>
</svg>
