<svg width="16" height="16" viewBox="0 0 16 16" fill="none" xmlns="http://www.w3.org/2000/svg">
<rect width="16" height="16" fill="white"/>
<path d="M8.40244 9.04904V9.04567C9.61482 9.04567 10.7531 8.56746 11.6085 7.70196C12.4572 6.84319 12.9253 5.70827 12.9253 4.50937C12.9253 3.3172 12.4572 2.19575 11.6051 1.35045C10.7565 0.505157 9.62155 0.0269417 8.40581 0C8.40244 0 8.40244 0 8.39907 0H5.11556C4.97748 0 4.86298 0.114502 4.86298 0.252578V8.54389H3.3273C3.18922 8.54389 3.07472 8.65839 3.07472 8.79646C3.07472 8.93454 3.18922 9.04904 3.3273 9.04904H4.86298V11.1572H3.3273C3.18922 11.1572 3.07472 11.2717 3.07472 11.4098C3.07472 11.5479 3.18922 11.6624 3.3273 11.6624H4.86298V15.7474C4.86298 15.8855 4.97748 16 5.11556 16C5.25363 16 5.36813 15.8855 5.36813 15.7474V11.6624H10.615C10.7531 11.6624 10.8676 11.5479 10.8676 11.4098C10.8676 11.2717 10.7531 11.1572 10.615 11.1572H5.36813V9.04904H8.40244ZM5.36813 0.501789H5.3715H8.39907C10.6554 0.552305 12.4201 2.31025 12.4201 4.506C12.4201 6.72869 10.6184 8.53715 8.39907 8.53715H5.36813V0.501789Z" fill="#ABABAB"/>
</svg>
