<svg width="32" height="32" viewBox="0 0 32 32" fill="none" xmlns="http://www.w3.org/2000/svg">
<path d="M16.0001 32L2.70916 17.5292C0.963601 15.5794 0 13.0157 0 10.3137C0 4.62226 4.24538 0 9.47274 0C11.8181 0 14.1637 1.10859 16.0001 3.0584C17.8365 1.10859 20.1818 0 22.5272 0C27.7545 0 31.9999 4.62226 31.9999 10.3137C31.9999 13.0255 31.0363 15.5892 29.291 17.5292L16.0001 32ZM9.47274 1.58357C5.04545 1.58357 1.45446 5.49335 1.45446 10.3137C1.45446 12.61 2.27264 14.7776 3.74547 16.4206L16.0001 29.7631L28.2638 16.4108C29.7363 14.7776 30.5455 12.61 30.5455 10.3137C30.5455 5.50321 26.9545 1.58357 22.5272 1.58357C20.3637 1.58357 18.1728 2.7316 16.5455 4.731L16.0001 5.39418L15.4546 4.731C13.8273 2.7316 11.6365 1.58357 9.47274 1.58357Z" fill="black"/>
</svg>
