<svg width="50" height="50" viewBox="0 0 50 50" fill="none" xmlns="http://www.w3.org/2000/svg">
<circle cx="25" cy="25" r="25" fill="#FB3A61"/>
<path d="M32.8313 10H10.4614C10.2066 10 10 10.1967 10 10.4395V31.2524C10 31.4951 10.2066 31.6918 10.4614 31.6918C10.7161 31.6918 10.9227 31.4951 10.9227 31.2524V10.8789H32.37V13.1798C32.37 13.4225 32.5765 13.6192 32.8313 13.6192C33.0861 13.6192 33.2927 13.4225 33.2927 13.1798V10.4395C33.2927 10.1967 33.0861 10 32.8313 10Z" fill="white"/>
<path d="M32.8313 14.7942C32.5765 14.7942 32.37 14.9909 32.37 15.2336V39.121H10.9227V33.3076C10.9227 33.0649 10.7161 32.8682 10.4614 32.8682C10.2066 32.8682 10 33.0649 10 33.3076V39.5604C10 39.8032 10.2066 39.9999 10.4614 39.9999H32.8313C33.0861 39.9999 33.2927 39.8032 33.2927 39.5604V15.2336C33.2927 14.9909 33.0861 14.7942 32.8313 14.7942Z" fill="white"/>
<path d="M11.8643 18.5484C11.8643 18.7912 12.0708 18.9879 12.3256 18.9879H20.4036C20.6584 18.9879 20.865 18.7912 20.865 18.5484V16.7727C20.865 16.53 20.6584 16.3333 20.4036 16.3333H12.3256C12.0708 16.3333 11.8643 16.53 11.8643 16.7727V18.5484ZM12.787 17.2122H19.9423V18.109H12.787V17.2122Z" fill="white"/>
<path d="M12.3256 15.4365H16.0539C16.3087 15.4365 16.5152 15.2398 16.5152 14.9971C16.5152 14.7543 16.3087 14.5576 16.0539 14.5576H12.3256C12.0708 14.5576 11.8643 14.7543 11.8643 14.9971C11.8643 15.2398 12.0708 15.4365 12.3256 15.4365Z" fill="white"/>
<path d="M25.3745 11.7756H17.9179C17.6631 11.7756 17.4565 11.9723 17.4565 12.2151C17.4565 12.4578 17.6631 12.6545 17.9179 12.6545H25.3745C25.6293 12.6545 25.8359 12.4578 25.8359 12.2151C25.8359 11.9723 25.6293 11.7756 25.3745 11.7756Z" fill="white"/>
<path d="M11.8643 23.9347C11.8643 24.1774 12.0708 24.3741 12.3256 24.3741H20.4036C20.6584 24.3741 20.865 24.1774 20.865 23.9347V22.1589C20.865 21.9162 20.6584 21.7195 20.4036 21.7195H12.3256C12.0708 21.7195 11.8643 21.9162 11.8643 22.1589V23.9347ZM12.787 22.5984H19.9423V23.4953H12.787V22.5984Z" fill="white"/>
<path d="M12.3256 20.8228H16.0539C16.3087 20.8228 16.5152 20.6261 16.5152 20.3833C16.5152 20.1405 16.3087 19.9438 16.0539 19.9438H12.3256C12.0708 19.9438 11.8643 20.1405 11.8643 20.3833C11.8643 20.6261 12.0708 20.8228 12.3256 20.8228Z" fill="white"/>
<path d="M11.8643 29.3209C11.8643 29.5637 12.0708 29.7604 12.3256 29.7604H20.4036C20.6584 29.7604 20.865 29.5637 20.865 29.3209V27.5452C20.865 27.3024 20.6584 27.1057 20.4036 27.1057H12.3256C12.0708 27.1057 11.8643 27.3024 11.8643 27.5452V29.3209ZM12.787 27.9847H19.9423V28.8815H12.787V27.9847Z" fill="white"/>
<path d="M12.3256 26.209H16.0539C16.3087 26.209 16.5152 26.0123 16.5152 25.7695C16.5152 25.5268 16.3087 25.3301 16.0539 25.3301H12.3256C12.0708 25.3301 11.8643 25.5268 11.8643 25.7695C11.8643 26.0123 12.0708 26.209 12.3256 26.209Z" fill="white"/>
<path d="M31.4285 16.7727C31.4285 16.53 31.2219 16.3333 30.9671 16.3333H22.8891C22.6343 16.3333 22.4277 16.53 22.4277 16.7727V18.5484C22.4277 18.7912 22.6343 18.9879 22.8891 18.9879H30.9671C31.2219 18.9879 31.4285 18.7912 31.4285 18.5484V16.7727ZM30.5058 18.109H23.3504V17.2122H30.5058V18.109Z" fill="white"/>
<path d="M26.6174 14.5576H22.8891C22.6343 14.5576 22.4277 14.7543 22.4277 14.9971C22.4277 15.2398 22.6343 15.4365 22.8891 15.4365H26.6174C26.8722 15.4365 27.0788 15.2398 27.0788 14.9971C27.0788 14.7543 26.8722 14.5576 26.6174 14.5576Z" fill="white"/>
<path d="M31.4285 22.1589C31.4285 21.9162 31.2219 21.7195 30.9671 21.7195H22.8891C22.6343 21.7195 22.4277 21.9162 22.4277 22.1589V23.9347C22.4277 24.1774 22.6343 24.3741 22.8891 24.3741H30.9671C31.2219 24.3741 31.4285 24.1774 31.4285 23.9347V22.1589ZM30.5058 23.4952H23.3504V22.5983H30.5058V23.4952Z" fill="white"/>
<path d="M22.8891 20.8228H26.6174C26.8722 20.8228 27.0788 20.6261 27.0788 20.3833C27.0788 20.1405 26.8722 19.9438 26.6174 19.9438H22.8891C22.6343 19.9438 22.4277 20.1405 22.4277 20.3833C22.4277 20.6261 22.6343 20.8228 22.8891 20.8228Z" fill="white"/>
<path d="M31.4285 27.5452C31.4285 27.3024 31.2219 27.1057 30.9671 27.1057H22.8891C22.6343 27.1057 22.4277 27.3024 22.4277 27.5452V29.3209C22.4277 29.5637 22.6343 29.7604 22.8891 29.7604H30.9671C31.2219 29.7604 31.4285 29.5637 31.4285 29.3209V27.5452ZM30.5058 28.8814H23.3504V27.9846H30.5058V28.8814Z" fill="white"/>
<path d="M22.8891 26.209H26.6174C26.8722 26.209 27.0788 26.0123 27.0788 25.7695C27.0788 25.5268 26.8722 25.3301 26.6174 25.3301H22.8891C22.6343 25.3301 22.4277 25.5268 22.4277 25.7695C22.4277 26.0123 22.6343 26.209 22.8891 26.209Z" fill="white"/>
<path d="M12.3256 34.0786H28.4817C28.7365 34.0786 28.943 33.8819 28.943 33.6392C28.943 33.3964 28.7365 33.1997 28.4817 33.1997H12.3256C12.0708 33.1997 11.8643 33.3964 11.8643 33.6392C11.8643 33.8819 12.0708 34.0786 12.3256 34.0786Z" fill="white"/>
<path d="M12.3256 32.3054H28.4817C28.7365 32.3054 28.943 32.1087 28.943 31.866C28.943 31.6232 28.7365 31.4265 28.4817 31.4265H12.3256C12.0708 31.4265 11.8643 31.6232 11.8643 31.866C11.8643 32.1087 12.0708 32.3054 12.3256 32.3054Z" fill="white"/>
<path d="M12.3256 35.8518H22.8892C23.144 35.8518 23.3506 35.6551 23.3506 35.4124C23.3506 35.1696 23.144 34.9729 22.8892 34.9729H12.3256C12.0708 34.9729 11.8643 35.1696 11.8643 35.4124C11.8643 35.6551 12.0708 35.8518 12.3256 35.8518Z" fill="white"/>
<path d="M30.9671 37.3455H25.996C25.7412 37.3455 25.5347 37.5422 25.5347 37.7849C25.5347 38.0277 25.7412 38.2244 25.996 38.2244H30.9671C31.2219 38.2244 31.4285 38.0277 31.4285 37.7849C31.4285 37.5422 31.2219 37.3455 30.9671 37.3455Z" fill="white"/>
<path d="M38.9172 17.7538H38.1383V16.4176C38.1383 16.1833 37.9457 15.9925 37.7033 15.9794V14.05C37.7033 13.8073 37.4968 13.6106 37.242 13.6106H35.1292C34.8744 13.6106 34.6679 13.8073 34.6679 14.05V15.9794C34.4254 15.9925 34.2329 16.1834 34.2329 16.4176V34.5276C34.2329 35.1626 34.4622 35.7853 34.8787 36.2812L35.7242 37.288V38.3176C35.7242 38.5603 35.9308 38.757 36.1856 38.757C36.4404 38.757 36.6469 38.5603 36.6469 38.3176V37.288L37.4926 36.2812C37.909 35.7853 38.1383 35.1626 38.1383 34.5276V31.8659C38.1383 31.6232 37.9318 31.4265 37.677 31.4265C37.4222 31.4265 37.2156 31.6232 37.2156 31.8659V34.5276C37.2156 34.9637 37.0581 35.3915 36.7721 35.7321L36.1857 36.4303L35.5993 35.7322C35.3132 35.3916 35.1557 34.9638 35.1557 34.5276V26.3273H37.2156V29.8109C37.2156 30.0537 37.4222 30.2504 37.677 30.2504C37.9318 30.2504 38.1383 30.0537 38.1383 29.8109V18.6327H38.9173C39.0056 18.6327 39.0774 18.7011 39.0774 18.7852V24.7042C39.0774 24.9469 39.2839 25.1436 39.5387 25.1436C39.7935 25.1436 40.0001 24.9469 40.0001 24.7042V18.7852C40 18.2165 39.5143 17.7538 38.9172 17.7538ZM35.1557 16.857H37.2156V23.6727H35.1557V16.857ZM35.5906 14.4895H36.7807V15.9781H35.5906V14.4895ZM35.1557 25.4484V24.5516H37.2156V25.4484H35.1557Z" fill="white"/>
</svg>
