<svg width="6" height="12" viewBox="0 0 6 12" fill="none" xmlns="http://www.w3.org/2000/svg">
<path d="M3.45 6.18182C4.85607 6.18182 6 4.79524 6 3.09091C6 1.38658 4.85607 0 3.45 0C3.44451 0 3.43905 0.000109091 3.43362 0.000363636H1.3506C1.35039 0.000363636 1.35021 0.000327273 1.35003 0.000327273C1.10151 0.000327273 0.90003 0.244545 0.90003 0.545782V0.545818V5.63636V7.27273H0.45C0.20148 7.27273 0 7.51695 0 7.81818C0 8.11942 0.20148 8.36364 0.45 8.36364H0.9V11.4545C0.9 11.7558 1.10148 12 1.35 12C1.59852 12 1.8 11.7558 1.8 11.4545V8.36364H3.45C3.69852 8.36364 3.9 8.11942 3.9 7.81818C3.9 7.51695 3.69852 7.27273 3.45 7.27273H1.8V6.18182H3.45ZM3.45 1.09127C3.45486 1.09127 3.45972 1.09116 3.46452 1.09098C4.3677 1.10044 5.1 1.99396 5.1 3.09091C5.1 4.19371 4.35981 5.09091 3.45 5.09091H1.8V1.09127H3.45Z" fill="white"/>
</svg>
